<?xml version="1.0" ?><!DOCTYPE svg  PUBLIC '-//W3C//DTD SVG 1.1//EN'  'http://www.w3.org/Graphics/SVG/1.1/DTD/svg11.dtd'><svg enable-background="new 0 0 200 200" height="200px" id="Layer_1" version="1.1" viewBox="0 0 200 200" width="200px" xml:space="preserve" xmlns="http://www.w3.org/2000/svg" xmlns:xlink="http://www.w3.org/1999/xlink"><g><g><path d="M196.789,36.247l-27.345,27.345c-2.529,2.532-6.022,4.095-9.879,4.095c-3.861,0-7.362-1.563-9.892-4.095    l-6.591-6.588c-2.53-2.532-4.089-6.027-4.089-9.888s1.559-7.354,4.089-9.884l27.345-27.345    c-16.718-6.55-36.461-3.079-49.97,10.431c-18.2,18.197-18.2,47.704,0,65.9c18.201,18.201,47.704,18.201,65.9,0    C199.871,72.71,203.34,52.969,196.789,36.247z" fill="#5E889E"/><path d="M50.082,120.566l-28.376,26.31c-5.016,4.654-8.205,11.263-8.345,18.645    c-0.14,7.382,2.797,14.104,7.637,18.943l1.219,1.218c4.836,4.838,11.558,7.777,18.94,7.637c7.386-0.138,13.988-3.327,18.644-8.347    l26.31-28.376L50.082,120.566z M48.843,174.309c-4.544,4.553-11.922,4.553-16.474,0c-4.548-4.548-4.548-11.926,0-16.474    c4.552-4.553,11.93-4.553,16.474,0C53.391,162.383,53.391,169.761,48.843,174.309z" fill="#5E889E"/></g><g><path d="M94.456,75.744c-1.802,0-3.433,0.727-4.612,1.908L59.53,107.969c-1.183,1.18-1.91,2.812-1.91,4.612    c0,1.803,0.727,3.434,1.91,4.612l67.875,67.88c10.927,10.921,28.624,10.917,39.542,0c10.923-10.92,10.923-28.621,0-39.542    L99.068,77.652C97.889,76.471,96.259,75.744,94.456,75.744z M140.917,167.608c1.811,1.813,1.811,4.778,0,6.589    c-1.811,1.814-4.78,1.814-6.591,0l-59.31-59.31c-1.814-1.811-1.814-4.776,0-6.591c1.811-1.811,4.776-1.811,6.59,0L140.917,167.608    z M156.076,152.451c1.811,1.813,1.811,4.778,0,6.591s-4.78,1.813-6.591,0l-59.31-59.313c-1.818-1.813-1.818-4.778,0-6.59    c1.807-1.813,4.776-1.813,6.586,0.002L156.076,152.451z" fill="#5E889E"/><path d="M18.948,54.627l7.414-0.258l38.771,38.769l9.883-9.886L36.25,44.486l0.256-7.416    c0.02-0.629-0.116-1.275-0.432-1.873c-0.315-0.599-0.779-1.073-1.315-1.411L9.888,18.128L0,28.01l15.667,24.877    c0.332,0.536,0.812,0.991,1.407,1.309C17.673,54.512,18.317,54.649,18.948,54.627z" fill="#5E889E"/></g></g></svg>