<?xml version="1.0" ?><!DOCTYPE svg  PUBLIC '-//W3C//DTD SVG 1.1//EN'  'http://www.w3.org/Graphics/SVG/1.1/DTD/svg11.dtd'><svg enable-background="new 0 0 200 200" height="200px" id="Layer_1" version="1.1" viewBox="0 0 200 200" width="200px" xml:space="preserve" xmlns="http://www.w3.org/2000/svg" xmlns:xlink="http://www.w3.org/1999/xlink"><path d="M112.791,0.813c14.451,1.84,27.939,6.774,39.776,14.101c-2.19,1.682-4.384,3.381-6.545,5.101  c-2.104,1.793-4.236,3.569-6.325,5.396l-5.898,5.474c-1.37-0.907-3.021-1.438-4.787-1.438c-0.755,0-1.479,0.103-2.165,0.278  c-0.28-0.484-0.548-0.972-0.819-1.468c-1.485-3.008-3.079-5.995-4.624-8.995c-1.41-3.064-2.927-6.085-4.385-9.153l-2.084-4.665  C114.241,3.898,113.506,2.358,112.791,0.813z M108.253,1.938c-0.483,0.997-1.175,2.474-2.105,4.318  c-0.458,0.924-0.972,1.947-1.534,3.056c-0.567,1.104-1.25,2.272-1.967,3.53c-1.47,2.486-2.984,5.414-4.985,8.357  c-1.94,2.983-3.96,6.287-6.427,9.539c-1.209,1.643-2.424,3.359-3.717,5.071c-1.335,1.69-2.694,3.406-4.112,5.135  c-0.706,0.856-1.421,1.729-2.136,2.606c-0.753,0.848-1.502,1.708-2.268,2.568c-1.527,1.708-3.049,3.475-4.634,5.204  c-1.652,1.669-3.313,3.351-4.981,5.028c-0.843,0.843-1.652,1.72-2.529,2.521l-0.957,0.89c0.443,1.04,0.695,2.191,0.695,3.398  c0,0.607-0.068,1.207-0.184,1.776c0.503,0.24,0.997,0.471,1.494,0.723c2.593,1.313,5.189,2.82,7.853,4.267  c2.703,1.42,5.298,3.051,7.951,4.686c1.318,0.817,2.649,1.652,3.982,2.491c0.982,0.625,1.949,1.301,2.914,1.977  c1.461-1.112,3.276-1.776,5.24-1.776c0.556,0,1.096,0.056,1.626,0.154l0.944-1.631c0.926-1.553,1.767-3.158,2.771-4.664l6.055-9  l1.52-2.238c0.51-0.753,1.078-1.446,1.617-2.174c1.09-1.438,2.202-2.867,3.311-4.288c2.231-2.837,4.382-5.73,6.847-8.383  c0.503-0.582,1.021-1.16,1.532-1.742c-1.091-1.446-1.741-3.244-1.741-5.204c0-2.683,1.213-5.088,3.134-6.68l-0.742-1.583  c-1.342-3.15-2.6-6.333-3.884-9.5c-1.168-3.222-2.237-6.479-3.34-9.701l-1.389-4.917c-0.453-1.639-0.87-3.299-1.313-4.938  c-1.254-0.171-2.529-0.304-3.802-0.411C108.989,0.402,108.734,0.937,108.253,1.938z M130.788,120.746  c-1.006-1.091-2.016-2.19-3.034-3.299c-0.501-0.561-1.04-1.092-1.59-1.613c-0.544-0.522-1.094-1.053-1.642-1.584  c-2.19-2.113-4.414-4.258-6.652-6.419c-1.093-1.112-2.268-2.118-3.446-3.141c-1.18-1.023-2.346-2.046-3.526-3.081  c-1.175-1.023-2.366-2.054-3.539-3.086c-0.604-0.513-1.168-1.036-1.789-1.536l-1.892-1.468c-0.994-0.774-2-1.536-2.993-2.307  c-1.391,0.924-3.051,1.468-4.84,1.468c-0.37,0-0.74-0.03-1.11-0.077c-1.241,2.546-2.369,5.088-3.567,7.626  c-0.766,1.575-1.429,3.214-2.108,4.845l-2.035,4.896c-0.687,1.63-1.245,3.304-1.885,4.955l-1.873,4.96l-1.708,5.032  c-0.552,1.669-1.181,3.329-1.643,5.037l-1.506,5.088l-0.781,2.538l-0.674,2.571c-0.689,2.624-1.41,5.242-2.028,7.874  c0.813,0.377,1.545,0.873,2.191,1.464c0.396-0.266,0.775-0.526,1.166-0.787c2.095-1.31,4.239-2.641,6.413-4.006  c4.412-2.623,9.017-5.259,13.861-7.635c1.211-0.607,2.418-1.215,3.634-1.835c1.224-0.569,2.462-1.139,3.708-1.717  c2.478-1.121,4.962-2.28,7.529-3.265c2.548-0.993,5.058-2.075,7.645-3.004c2.59-0.916,5.148-1.854,7.714-2.73  c0.381-0.115,0.753-0.223,1.132-0.338c0-0.068-0.011-0.138-0.011-0.201c0-1.729,0.514-3.334,1.383-4.687  C131.126,121.105,130.948,120.931,130.788,120.746z M4.951,113.968c1.47,1.16,2.897,2.366,4.384,3.509  c3.01,2.204,5.916,4.507,8.933,6.668l4.553,3.218c1.525,1.048,3.002,2.178,4.587,3.146l4.643,3.06  c1.545,1.022,3.077,2.054,4.69,2.974c1.583,0.955,3.175,1.892,4.75,2.867l2.366,1.447l2.414,1.352l4.847,2.696  c0.811,0.44,1.615,0.916,2.433,1.331l2.474,1.254c2.972,1.506,5.897,3.09,8.927,4.472c1.489-1.583,3.564-2.606,5.893-2.722  c0.49-2.734,1.091-5.447,1.652-8.178c0.655-3.552,1.697-7.019,2.584-10.523c0.426-1.759,1.001-3.466,1.515-5.203l1.583-5.187  c1.16-3.415,2.347-6.834,3.64-10.215l2.028-5.028c0.674-1.682,1.341-3.359,2.125-5.011c1.196-2.624,2.354-5.319,3.612-7.887  c-1.498-1.566-2.424-3.681-2.424-6.017c0-0.886,0.135-1.746,0.385-2.555c-0.916-0.659-1.838-1.314-2.771-1.926  c-1.305-0.83-2.587-1.66-3.871-2.482c-2.559-1.66-5.05-3.355-7.611-4.806c-2.555-1.485-4.99-3.021-7.51-4.399  c-0.5-0.274-0.98-0.535-1.477-0.804c-1.583,1.737-3.86,2.829-6.397,2.829c-1.596,0-3.081-0.432-4.369-1.186  c-3.685,2.897-7.352,5.764-11.043,8.242c-3.601,2.636-7.288,4.887-10.754,7.057c-3.554,2.041-6.834,4.078-10.04,5.631  c-1.585,0.817-3.1,1.592-4.547,2.337c-1.438,0.745-2.88,1.322-4.181,1.93c-2.636,1.207-4.923,2.238-6.875,2.953  c-3.862,1.515-6.091,2.311-6.091,2.311c0.03,3.167,0.214,6.291,0.53,9.372C2.024,111.636,3.485,112.813,4.951,113.968z   M134.764,118.179c1.159-0.569,2.452-0.898,3.836-0.898c3.253,0,6.079,1.788,7.57,4.441c1.735-0.428,3.462-0.839,5.152-1.245  c2.414-0.492,4.808-0.868,7.116-1.297c2.303-0.41,4.566-0.787,6.734-1.155c2.185-0.347,4.328-0.492,6.367-0.731  c2.037-0.223,3.997-0.428,5.85-0.595c1.862-0.18,3.618-0.372,5.271-0.394c1.421-0.056,2.752-0.095,4.006-0.124  c0.01-1.768,0.543-3.398,1.45-4.759c-0.291-0.206-0.571-0.407-0.852-0.612l-2.711-1.985l-2.608-2.114l-5.176-4.297  c-0.85-0.723-1.746-1.407-2.567-2.173l-2.452-2.307l-4.894-4.626c-1.669-1.506-3.184-3.167-4.72-4.806l-4.59-4.943l-1.147-1.237  l-1.089-1.284l-2.165-2.589l-4.265-5.221c-0.736-0.86-1.393-1.776-2.048-2.683l-1.996-2.722c-1.326-1.828-2.675-3.625-3.972-5.457  c-1.272-1.857-2.435-3.783-3.656-5.679l-3.622-5.696c-0.852-1.455-1.652-2.953-2.461-4.442c-0.679,0.175-1.382,0.274-2.114,0.274  c-1.391,0-2.704-0.338-3.873-0.92c-0.464,0.59-0.926,1.189-1.391,1.776c-2.276,2.722-4.24,5.687-6.265,8.584  c-1.012,1.455-2.028,2.906-3.06,4.343c-0.512,0.728-1.053,1.429-1.523,2.174l-1.41,2.251l-5.643,8.987  c-1.194,2.054-2.355,4.129-3.503,6.218c1.363,1.537,2.191,3.539,2.191,5.751c0,1.027-0.182,2.011-0.512,2.918  c0.995,0.788,1.979,1.571,2.975,2.345l1.881,1.485c0.62,0.514,1.215,1.074,1.825,1.605c1.215,1.07,2.424,2.152,3.631,3.222  c1.209,1.074,2.413,2.144,3.62,3.214c1.196,1.074,2.427,2.106,3.505,3.265c2.221,2.269,4.423,4.527,6.605,6.749  c0.539,0.552,1.078,1.112,1.619,1.66c0.546,0.548,1.083,1.104,1.575,1.69c1.004,1.159,2.009,2.307,3.004,3.457  C134.436,117.794,134.59,117.986,134.764,118.179z M189.187,110.095c1.574-1.592,3.757-2.576,6.166-2.576  c1.554,0,3.015,0.407,4.271,1.13c0.253-2.846,0.377-5.734,0.377-8.648c0-35.942-18.962-67.456-47.433-85.086  c-1.923,1.99-3.862,3.958-5.812,5.91c-1.891,2.007-3.755,4.044-5.657,6.013l-5.271,5.922c1.168,1.477,1.87,3.338,1.87,5.375  c0,2.375-0.952,4.519-2.497,6.094l2.55,4.228l3.629,5.529c1.225,1.836,2.373,3.71,3.657,5.503c1.313,1.768,2.569,3.582,3.864,5.371  l1.919,2.692c0.638,0.898,1.265,1.806,1.967,2.645l4.127,5.187l2.026,2.606l1.015,1.305l1.078,1.254l4.337,5.011  c1.459,1.652,2.82,3.398,4.374,4.973l4.538,4.835l2.26,2.431c0.742,0.822,1.562,1.566,2.343,2.35l4.741,4.66l2.348,2.366l2.46,2.238  C188.688,109.637,188.936,109.868,189.187,110.095z M41.858,181.367c7.851,5.619,16.542,10.125,25.858,13.301  c-0.098-3.582-0.244-7.172-0.186-10.754l0.126-5.388l0.098-2.7l0.188-2.696l0.381-5.396c0.036-0.539,0.103-1.069,0.161-1.601  c-1.205-0.415-2.296-1.082-3.203-1.942c-0.569,0.368-1.13,0.744-1.669,1.121c-1.652,1.155-3.235,2.269-4.729,3.329  c-0.762,0.522-1.498,1.036-2.214,1.536c-0.704,0.522-1.389,1.023-2.043,1.516c-1.327,0.984-2.572,1.904-3.71,2.751  c-0.582,0.415-1.141,0.822-1.669,1.207c-0.512,0.406-1.006,0.792-1.47,1.16c-3.511,2.76-5.664,4.373-5.899,4.536  c0.214-0.231,2.039-2.183,5.165-5.375c1.633-1.751,3.804-3.65,6.239-5.919c2.384-2.328,5.349-4.647,8.486-7.3  c0.518-0.433,1.062-0.848,1.592-1.275c-0.492-1.092-0.771-2.298-0.771-3.573c0-0.347,0.026-0.693,0.066-1.031  c-3.098-1.46-6.092-3.129-9.124-4.712l-2.501-1.34c-0.819-0.466-1.611-0.967-2.422-1.45l-4.849-2.923l-2.422-1.468l-2.345-1.575  c-1.583-1.035-3.128-2.114-4.682-3.167c-1.575-1.044-3.081-2.182-4.585-3.312l-4.513-3.398c-1.513-1.108-2.923-2.375-4.369-3.573  l-4.326-3.62c-1.438-1.207-2.771-2.559-4.151-3.821c-1.372-1.292-2.751-2.567-4.104-3.873c-2.625-2.661-5.185-5.383-7.725-8.147  C3.59,139.691,19.193,165.148,41.858,181.367z M15.059,47.206C5.512,62.53,0,80.623,0,100c0,0.376,0,0.753,0.009,1.121  c0,0,1.998-1.288,5.542-3.402c1.787-1.023,3.871-2.422,6.304-3.92c2.441-1.494,5.126-3.299,8.062-5.221  c0.736-0.484,1.479-0.976,2.243-1.477c0.753-0.522,1.502-1.062,2.285-1.605c1.553-1.07,3.154-2.178,4.818-3.321  c1.613-1.189,3.274-2.414,4.96-3.667c1.733-1.198,3.421-2.529,5.148-3.86c1.716-1.344,3.513-2.674,5.204-4.125  c1.718-1.408,3.466-2.829,5.223-4.267c-0.37-0.967-0.58-2.007-0.58-3.098c0-0.629,0.068-1.246,0.203-1.836  c-1.632-0.822-3.213-1.622-4.808-2.277c-4.354-1.913-8.311-3.783-11.924-5.148c-1.795-0.723-3.486-1.399-5.039-2.028  c-1.545-0.664-3.013-1.164-4.324-1.639c-4.945-1.759-7.878-2.875-8.225-3.013c0.364,0.077,3.434,0.715,8.542,1.913  c2.741,0.552,5.998,1.583,9.764,2.674c1.87,0.569,3.911,1.091,5.965,1.862c2.067,0.745,4.236,1.519,6.504,2.328  c1.682,0.569,3.364,1.245,5.08,1.968c1.583-2.123,4.104-3.496,6.954-3.496c1.463,0,2.856,0.368,4.063,1.014l0.896-0.809  c0.869-0.774,1.66-1.613,2.499-2.414c1.652-1.634,3.304-3.256,4.936-4.857c1.59-1.652,3.175-3.282,4.74-4.904  c0.77-0.813,1.553-1.613,2.317-2.413c0.743-0.831,1.479-1.652,2.202-2.461c1.436-1.643,2.895-3.235,4.315-4.789  c1.378-1.583,2.681-3.188,3.986-4.72c0.638-0.766,1.275-1.528,1.9-2.268c0.321-0.381,0.638-0.745,0.95-1.117  c0.297-0.373,0.595-0.749,0.886-1.117c1.179-1.485,2.307-2.914,3.396-4.296c2.223-2.73,4.087-5.34,5.812-7.625  c0.862-1.147,1.662-2.221,2.409-3.214c0.724-1.019,1.38-1.952,1.967-2.799c1.189-1.69,2.15-3.004,2.799-3.903  c0.656-0.898,1.008-1.374,1.008-1.374C106.023,0.133,103.032,0,99.998,0C64.141,0,32.707,18.863,15.059,47.206z M162.057,178.41  c-3.733,0.091-7.484,0.116-11.237,0.116c-1.881,0.013-3.746-0.154-5.616-0.24l-5.63-0.308c-1.883-0.052-3.738-0.368-5.61-0.552  l-5.607-0.646c-1.873-0.176-3.728-0.492-5.581-0.83l-5.573-0.963l-2.777-0.505l-2.761-0.616c-1.836-0.407-3.669-0.83-5.505-1.267  l-2.761-0.655c-0.907-0.23-1.806-0.514-2.713-0.762l-5.443-1.566c-3.65-0.958-7.202-2.336-10.786-3.573  c-2.268-0.74-4.439-1.601-6.592-2.481c-1.545,1.806-3.832,2.966-6.382,3.025c-0.405,2.276-0.762,4.545-1.141,6.821l-0.424,2.632  l-0.34,2.653l-0.704,5.311c-0.432,3.539-0.732,7.104-1.156,10.664C77.841,198.126,88.705,200,99.998,200  C123.44,200,145.008,191.929,162.057,178.41z M162.065,178.41c2.493-1.977,4.9-4.073,7.188-6.273  c13.247-12.714,22.982-29.031,27.653-47.372c-0.497,0.086-1.023,0.133-1.554,0.133c-4.305,0-7.867-3.137-8.55-7.241  c-1.256,0.176-2.57,0.347-3.988,0.522c-1.65,0.176-3.37,0.514-5.183,0.86c-1.806,0.355-3.719,0.706-5.711,1.048  c-1.977,0.39-4.053,0.672-6.18,1.169c-2.109,0.514-4.301,1.044-6.56,1.558c-2.251,0.53-4.575,1.022-6.927,1.63  c-1.626,0.476-3.288,0.968-4.97,1.46v0.068c0,2.045-0.711,3.92-1.896,5.404c3.334,4.189,6.038,8.61,8.673,12.552  c0.669,1.006,1.319,1.985,1.953,2.952c0.64,0.968,1.146,1.978,1.707,2.928c1.083,1.899,2.104,3.714,3.084,5.413  c0.952,1.699,1.889,3.273,2.65,4.78c0.734,1.527,1.41,2.927,2.028,4.189c1.229,2.521,2.145,4.519,2.791,5.871  c0.561,1.186,0.886,1.883,0.956,2.046c-0.097-0.146-0.505-0.801-1.209-1.922c-0.789-1.275-1.979-3.115-3.437-5.503  c-0.731-1.189-1.532-2.499-2.413-3.929c-0.916-1.408-1.988-2.884-3.068-4.497c-1.094-1.593-2.249-3.304-3.478-5.097  c-0.629-0.891-1.226-1.828-1.912-2.735c-0.683-0.907-1.389-1.835-2.102-2.777c-1.43-1.896-2.914-3.864-4.463-5.9  c-0.762-1.023-1.537-2.059-2.434-3.061c-0.78-0.949-1.583-1.912-2.392-2.875c-1.13,0.539-2.393,0.847-3.726,0.847  c-3.004,0-5.65-1.515-7.206-3.834c-0.377,0.128-0.743,0.253-1.108,0.381c-2.463,0.933-4.951,1.823-7.444,2.747  c-2.501,0.929-4.962,2.021-7.439,3.021c-2.501,0.976-4.908,2.174-7.362,3.244c-1.216,0.552-2.431,1.095-3.648,1.643  c-1.188,0.578-2.384,1.169-3.561,1.746c-2.375,1.169-4.739,2.298-7.001,3.564c-2.266,1.254-4.575,2.354-6.757,3.621  c-2.183,1.254-4.335,2.481-6.432,3.697c-0.372,0.223-0.749,0.453-1.117,0.676c0.28,0.869,0.445,1.789,0.445,2.739  c0,0.214-0.021,0.428-0.032,0.638c2.146,0.898,4.29,1.775,6.443,2.512l5.171,1.883c1.709,0.676,3.479,1.236,5.231,1.793l5.272,1.712  c0.88,0.282,1.759,0.577,2.647,0.839l2.672,0.735c1.787,0.471,3.567,0.972,5.352,1.477l2.664,0.762l2.702,0.638l5.416,1.254  c1.806,0.415,3.603,0.877,5.428,1.198c3.648,0.676,7.277,1.459,10.947,2.046l11.043,1.682c3.708,0.415,7.416,0.848,11.132,1.339  l0.009-2.413V178.41z" fill="#5E889E"/></svg>