<?xml version="1.0" ?><!DOCTYPE svg  PUBLIC '-//W3C//DTD SVG 1.1//EN'  'http://www.w3.org/Graphics/SVG/1.1/DTD/svg11.dtd'><svg enable-background="new 0 0 128 128" version="1.1" viewBox="0 0 128 128" xml:space="preserve" xmlns="http://www.w3.org/2000/svg" xmlns:xlink="http://www.w3.org/1999/xlink"><g id="Layer_1"><rect fill="#F4F5F5" height="1520" opacity="0" width="727.938" x="-379.984" y="-541"/></g><g id="Layer_2"><g><circle cx="64" cy="64" fill="#AD378C" r="64"/><g><defs><circle cx="64" cy="64" id="SVGID_17_" r="64"/></defs><clipPath id="SVGID_2_"><use overflow="visible" xlink:href="#SVGID_17_"/></clipPath><polygon clip-path="url(#SVGID_2_)" fill="#8C2E71" points="32.65,100.698 59.958,128 128,128 128,66.417 90.787,29.244      89.656,32.156 83.536,26.029 69.062,37.171 53.7,21.925 44.665,28.211 55.75,39.281 35.403,38.468 39.531,42.625 29.234,58.376      34.793,63.926    "/></g><path d="M23.964,25.913l1.021,2.758c0.021,0.058,0.067,0.104,0.125,0.125l2.758,1.021    c0.184,0.068,0.184,0.328,0,0.396l-2.758,1.021c-0.058,0.021-0.104,0.067-0.125,0.125l-1.021,2.758    c-0.068,0.184-0.328,0.184-0.396,0l-1.021-2.758c-0.021-0.058-0.067-0.104-0.125-0.125l-2.758-1.021    c-0.184-0.068-0.184-0.328,0-0.396l2.758-1.021c0.058-0.021,0.104-0.067,0.125-0.125l1.021-2.758    C23.636,25.729,23.896,25.729,23.964,25.913z" fill="#FFFFFF"/><path d="M106.185,27.21l1.021,2.758c0.021,0.058,0.067,0.104,0.125,0.125l2.758,1.021    c0.184,0.068,0.184,0.328,0,0.397l-2.758,1.021c-0.058,0.021-0.104,0.067-0.125,0.125l-1.021,2.758    c-0.068,0.184-0.328,0.184-0.396,0l-1.021-2.758c-0.021-0.058-0.067-0.104-0.125-0.125l-2.758-1.021    c-0.184-0.068-0.184-0.328,0-0.397l2.758-1.021c0.058-0.021,0.104-0.067,0.125-0.125l1.021-2.758    C105.857,27.026,106.117,27.026,106.185,27.21z" fill="#FFFFFF"/><path d="M22.724,95.843l1.021,2.758c0.021,0.058,0.067,0.104,0.125,0.125l2.758,1.021    c0.184,0.068,0.184,0.328,0,0.396l-2.758,1.021c-0.058,0.021-0.104,0.067-0.125,0.125l-1.021,2.758    c-0.068,0.184-0.328,0.184-0.396,0l-1.021-2.758c-0.021-0.058-0.067-0.104-0.125-0.125l-2.758-1.021    c-0.184-0.068-0.184-0.328,0-0.396l2.758-1.021c0.058-0.021,0.104-0.067,0.125-0.125l1.021-2.758    C22.396,95.659,22.656,95.659,22.724,95.843z" fill="#FFFFFF"/><path d="M78.592,108.864l1.021,2.758c0.021,0.058,0.067,0.104,0.125,0.125l2.758,1.021    c0.184,0.068,0.184,0.328,0,0.396l-2.758,1.021c-0.058,0.021-0.104,0.067-0.125,0.125l-1.021,2.758    c-0.068,0.184-0.328,0.184-0.396,0l-1.021-2.758c-0.021-0.058-0.067-0.104-0.125-0.125l-2.758-1.021    c-0.184-0.068-0.184-0.328,0-0.396l2.758-1.021c0.058-0.021,0.104-0.067,0.125-0.125l1.021-2.758    C78.263,108.68,78.523,108.68,78.592,108.864z" fill="#FFFFFF"/><path d="M96,51c0-1.105-0.895-2-2-2H34c-1.105,0-2,0.895-2,2v48c0,1.105,0.895,2,2,2h60c1.105,0,2-0.895,2-2V51z" fill="#FEF4F3"/><g><defs><path d="M96,51c0-1.105-0.895-2-2-2H34c-1.105,0-2,0.895-2,2v48c0,1.105,0.895,2,2,2h60c1.105,0,2-0.895,2-2V51z      " id="SVGID_19_"/></defs><clipPath id="SVGID_4_"><use overflow="visible" xlink:href="#SVGID_19_"/></clipPath><polygon clip-path="url(#SVGID_4_)" fill="#D3C2B8" opacity="0.6" points="29.245,58.635 73.417,102.625 99,102.417 99,56 32,56         "/></g><rect fill="#FF5929" height="7" width="64" x="32" y="70"/><path d="M100,43c0-1.105-0.895-2-2-2H31c-1.105,0-2,0.895-2,2v14c0,1.105,0.895,2,2,2h67c1.105,0,2-0.895,2-2V43z" fill="#FEF4F3"/><path d="M66,41.225l25.413-2.233c1.26-0.111,2.102-1.349,1.742-2.561l-1.889-6.368    c-0.363-1.224-1.765-1.799-2.883-1.182L66,41.225z" fill="#FF5929"/><path d="M66,41.225l16.965-12.658c1.139-0.85,1.053-2.582-0.163-3.316l-6.042-3.642    c-1.043-0.629-2.402-0.187-2.875,0.935L66,41.225z" fill="#EB5F7C"/><path d="M62,41.225l-25.413-2.233c-1.26-0.111-2.102-1.349-1.742-2.561l1.889-6.368    c0.363-1.224,1.765-1.799,2.883-1.182L62,41.225z" fill="#FF5929"/><path d="M62,41.225L45.035,28.567c-1.139-0.85-1.053-2.582,0.163-3.316l6.042-3.642    c1.043-0.629,2.402-0.187,2.875,0.935L62,41.225z" fill="#EB5F7C"/><rect fill="#D3C2B8" height="2" width="64" x="32" y="59"/><rect fill="#FF5929" height="42" width="6" x="61" y="59"/><g><defs><polygon id="SVGID_21_" points="96,70 67,70 67,41 61,41 61,70 32,70 32,77 61,77 61,101 67,101 67,77 96,77     "/></defs><clipPath id="SVGID_6_"><use overflow="visible" xlink:href="#SVGID_21_"/></clipPath><polygon clip-path="url(#SVGID_6_)" fill="#C1272D" opacity="0.48" points="29.245,58.385 73.417,102.5 99,102.417 99,58.959      32,58.954    "/></g><path d="M63.045,40.917l-13.817,9.749c-1.204,0.849-1.107,2.665,0.18,3.382l3.037,1.691    c0.87,0.485,1.964,0.255,2.566-0.539l9.951-13.117L63.045,40.917z" fill="#FF5929"/><path d="M64.955,40.917l13.817,9.749c1.204,0.849,1.107,2.665-0.18,3.382l-3.037,1.691    c-0.87,0.485-1.964,0.255-2.566-0.539l-9.951-13.117L64.955,40.917z" fill="#FF5929"/><rect fill="#C1272D" height="2" opacity="0.69" width="6" x="61" y="59"/><rect fill="#FF5929" height="16" width="6" x="61" y="43"/><path d="M69,42.668C69,43.956,67.956,45,66.668,45h-6.337C59.044,45,58,43.956,58,42.668v-3.337    C58,38.044,59.044,37,60.332,37h6.337C67.956,37,69,38.044,69,39.332V42.668z" fill="#FF5929"/><polygon fill="#C1272D" opacity="0.48" points="60.822,45 67,51.833 67,45   "/><path d="M114.34,76.25    c0,3.364-2.727,6.09-6.09,6.09c-2.355,0-4.263-1.909-4.263-4.263c0-1.648,1.336-2.984,2.984-2.984    c1.154,0,2.089,0.935,2.089,2.089c0,0.808-0.655,1.462-1.462,1.462" fill="none" stroke="#FFF7EC" stroke-linecap="round" stroke-linejoin="round" stroke-miterlimit="10"/><path d="M58.295,12.425    c1.046-3.197,4.486-4.94,7.683-3.893c2.398,0.785,3.705,3.365,2.92,5.762c-0.589,1.798-2.524,2.779-4.322,2.19    c-1.349-0.441-2.084-1.893-1.643-3.241c0.331-1.011,1.419-1.563,2.431-1.232c0.759,0.248,1.172,1.065,0.924,1.823" fill="none" stroke="#FFF7EC" stroke-linecap="round" stroke-linejoin="round" stroke-miterlimit="10"/><path d="M10.316,59.817    c2.8-1.864,6.581-1.105,8.445,1.695c1.398,2.1,0.829,4.936-1.271,6.334c-1.575,1.048-3.702,0.622-4.75-0.954    c-0.786-1.181-0.466-2.776,0.715-3.563c0.886-0.59,2.082-0.35,2.672,0.536c0.442,0.664,0.262,1.562-0.402,2.004" fill="none" stroke="#FFF7EC" stroke-linecap="round" stroke-linejoin="round" stroke-miterlimit="10"/></g></g></svg>