<?xml version="1.0" ?><!DOCTYPE svg  PUBLIC '-//W3C//DTD SVG 1.1//EN'  'http://www.w3.org/Graphics/SVG/1.1/DTD/svg11.dtd'><svg enable-background="new 0 0 128 128" version="1.1" viewBox="0 0 128 128" xml:space="preserve" xmlns="http://www.w3.org/2000/svg" xmlns:xlink="http://www.w3.org/1999/xlink"><g id="Layer_1"><rect fill="#F4F5F5" height="1520" opacity="0" width="727.938" x="-539.984" y="-1111"/></g><g id="Layer_2"><g><circle cx="64" cy="64" fill="#16B9BA" r="64"/><g><defs><circle cx="64" cy="64" id="SVGID_87_" r="64"/></defs><clipPath id="SVGID_2_"><use overflow="visible" xlink:href="#SVGID_87_"/></clipPath><rect clip-path="url(#SVGID_2_)" fill="#14849D" height="21" width="128" x="0" y="107"/></g><g><defs><circle cx="64" cy="64" id="SVGID_89_" r="64"/></defs><clipPath id="SVGID_4_"><use overflow="visible" xlink:href="#SVGID_89_"/></clipPath><polyline clip-path="url(#SVGID_4_)" fill="#88CDCF" points="64.691,45.118 66.485,45.01 68.704,43.586 78.416,31.435      128,48.055 128,107 87.527,107 64.691,45.117    "/></g><polyline fill="none" points="60.11,39.472 36.11,67.472 59.693,99.25       " stroke="#FFFFFF" stroke-miterlimit="10" stroke-width="5"/><circle cx="36.11" cy="67.472" fill="#3C4264" r="7.25"/><circle cx="36.11" cy="67.472" fill="#FFFFFF" r="3.809"/><path d="M59.693,91.5c-8.56,0-15.5,6.5-15.5,15.5h31C75.193,98,68.254,91.5,59.693,91.5z" fill="#3C4264"/><circle cx="57.586" cy="24.258" fill="#3C4264" r="5.905"/><path d="M64.354,44.677l-8.325-8.325c-1.326,1.511-1.902,3.695-1.107,5.983c0.557,1.603,1.846,2.891,3.449,3.448    C60.658,46.578,62.844,46.003,64.354,44.677z" fill="#3C4264"/><path d="M95.784,37.225l-17.368-5.79c-0.049-0.026-0.087-0.069-0.134-0.099L64.608,45.01    c0.025,0.038,0.06,0.068,0.082,0.108l6.288,17.003c0.686,1.198,2.323,1.417,3.299,0.44l22.005-22.005    C97.279,39.56,97.028,37.885,95.784,37.225z" fill="#3C4264"/><path d="M77.917,31.066L66.152,19.3c-0.818-0.818-2.144-0.818-2.962,0L52.565,29.925    c-0.818,0.818-0.818,2.144,0,2.962l11.79,11.79c0.131,0.131,0.244,0.279,0.337,0.44l6.288,17.003    c0.686,1.198,2.323,1.417,3.299,0.44l22.006-22.005c0.996-0.996,0.745-2.671-0.499-3.331l-17.368-5.79    C78.232,31.337,78.064,31.213,77.917,31.066z" fill="none"/><path d="M64.608,45.01l13.674-13.674c-0.128-0.082-0.257-0.162-0.365-0.27L66.152,19.3    c-0.818-0.818-2.144-0.818-2.962,0L52.565,29.925c-0.818,0.818-0.818,2.144,0,2.962l11.79,11.789    C64.453,44.776,64.531,44.893,64.608,45.01z" fill="#FFFFFF"/></g></g></svg>