<?xml version="1.0" ?><!DOCTYPE svg  PUBLIC '-//W3C//DTD SVG 1.1//EN'  'http://www.w3.org/Graphics/SVG/1.1/DTD/svg11.dtd'><svg enable-background="new 0 0 128 128" height="128px" id="Layer_1" version="1.1" viewBox="0 0 128 128" width="128px" xml:space="preserve" xmlns="http://www.w3.org/2000/svg" xmlns:xlink="http://www.w3.org/1999/xlink"><circle cx="64" cy="64" fill="#EAD57D" r="64"/><g><polygon fill="#DC4126" points="84.038,36.557 83.836,36.36 83.836,36.043 83.543,35.759 44.504,35.759 43.753,36.486    43.753,36.807 25.085,54.855 25.207,55 63.604,100.509 63.746,100.343 63.974,100.08 102.739,55 102.909,54.802  "/><polygon fill="#F0553A" points="83.543,35.759 44.504,35.759 43.753,36.486 43.753,55.25 83.836,55.25 83.836,36.043  "/><polygon fill="#F0553A" points="35.694,55 25.207,55 63.604,100.509 63.746,100.343 46.685,55  "/><polygon fill="#BB3821" points="81.262,55 63.974,100.08 102.739,55 92.354,55  "/><polygon fill="#DC4126" points="81.262,55 64.12,55 64.178,54.944 63.872,54.944 63.93,55 46.685,55 63.746,100.343 63.974,100.08     "/><polygon fill="#DC4126" points="44.011,36.557 35.694,55 46.685,55 46.663,54.944 63.872,54.944 44.433,36.148  "/><polygon fill="#F0553A" points="44.011,36.557 25.085,54.855 25.207,55 35.694,55  "/><polygon fill="#BB3821" points="84.038,36.557 83.618,36.148 64.178,54.944 81.284,54.944 81.262,55 92.354,55  "/><polygon fill="#DC4126" points="84.038,36.557 92.354,55 102.739,55 102.909,54.802  "/></g></svg>