<?xml version="1.0" ?><!DOCTYPE svg  PUBLIC '-//W3C//DTD SVG 1.1//EN'  'http://www.w3.org/Graphics/SVG/1.1/DTD/svg11.dtd'><svg enable-background="new 0 0 128 128" version="1.1" viewBox="0 0 128 128" xml:space="preserve" xmlns="http://www.w3.org/2000/svg" xmlns:xlink="http://www.w3.org/1999/xlink"><g id="Layer_1"><rect fill="#F4F5F5" height="1520" opacity="0" width="727.938" x="-59.984" y="-921"/></g><g id="Layer_2"><g><circle cx="64" cy="64" fill="#FF6097" r="64"/><g><defs><circle cx="64" cy="64" id="SVGID_91_" r="64"/></defs><clipPath id="SVGID_2_"><use overflow="visible" xlink:href="#SVGID_91_"/></clipPath><polygon clip-path="url(#SVGID_2_)" fill="#E4477F" points="19.136,92.334 54.802,128 128,128 128,55.05 108.929,35.737      30.819,47.833    "/></g><g><g><circle cx="88.087" cy="63.244" fill="#303640" r="16.631"/><g><circle cx="88.087" cy="63.244" fill="none" r="14.006" stroke="#41506B" stroke-miterlimit="10"/><circle cx="88.087" cy="63.244" fill="none" r="11.131" stroke="#41506B" stroke-miterlimit="10"/><circle cx="88.087" cy="63.244" fill="none" r="8.069" stroke="#6B6B6B" stroke-miterlimit="10"/><circle cx="88.087" cy="63.244" fill="none" r="5.057" stroke="#6B6B6B" stroke-miterlimit="10"/><circle cx="88.087" cy="63.244" fill="none" r="2.088" stroke="#6B6B6B" stroke-miterlimit="10"/></g></g><g><circle cx="40.169" cy="63.244" fill="#303640" r="16.631"/><g><circle cx="40.169" cy="63.244" fill="none" r="14.006" stroke="#41506B" stroke-miterlimit="10"/><circle cx="40.169" cy="63.244" fill="none" r="11.131" stroke="#41506B" stroke-miterlimit="10"/><circle cx="40.169" cy="63.244" fill="none" r="8.069" stroke="#6B6B6B" stroke-miterlimit="10"/><circle cx="40.169" cy="63.244" fill="none" r="5.057" stroke="#6B6B6B" stroke-miterlimit="10"/><circle cx="40.169" cy="63.244" fill="none" r="2.088" stroke="#6B6B6B" stroke-miterlimit="10"/></g></g></g><path d="M106,34.455H22c-2.209,0-4,1.791-4,4v51.09c0,2.209,1.791,4,4,4h84c2.209,0,4-1.791,4-4v-51.09    C110,36.246,108.209,34.455,106,34.455z M79.087,72.036H48.891V53.964h30.197V72.036z" fill="#354259"/><path d="M89.893,81.334H38.107c-1.353,0-2.539,0.906-2.894,2.211l-2.524,9.263    c-0.347,1.272,0.611,2.526,1.93,2.526h58.764c1.319,0,2.276-1.254,1.93-2.526l-2.524-9.263    C92.432,82.24,91.246,81.334,89.893,81.334z" fill="#25334A"/><g><circle cx="88.087" cy="90.334" fill="#B3D1DA" r="2"/><circle cx="79.087" cy="86.334" fill="#B3D1DA" r="2"/></g><g><circle cx="39.333" cy="90.334" fill="#B3D1DA" r="2"/><circle cx="48.333" cy="86.334" fill="#B3D1DA" r="2"/></g><path d="M102.391,40.98H25.609c-0.552,0-1,0.448-1,1v34.989c0,0.552,0.448,1,1,1h76.781c0.552,0,1-0.448,1-1V41.98    C103.391,41.428,102.943,40.98,102.391,40.98z M79.087,72.036H48.891V53.964h30.197V72.036z" fill="#F2F2F2"/><path d="M30.819,63c0,4.99,4.046,9.036,9.036,9.036h9.036V53.964h-9.036C34.864,53.964,30.819,58.01,30.819,63z     M88.145,53.964h-9.058v18.072h9.058c4.99,0,9.036-4.045,9.036-9.036S93.136,53.964,88.145,53.964z" fill="#7C9BBE"/><path d="M103.391,75.043v1.926c0,0.552-0.448,1-1,1H25.609c-0.552,0-1-0.448-1-1v-1.926H103.391z" fill="#D4B898"/><line fill="none" stroke="#65A1B3" stroke-linecap="round" stroke-linejoin="round" stroke-miterlimit="10" x1="39" x2="88" y1="49" y2="49"/><line fill="none" stroke="#65A1B3" stroke-linecap="round" stroke-linejoin="round" stroke-miterlimit="10" x1="39" x2="88" y1="45" y2="45"/><g><defs><path d="M30.819,63c0,4.99,4.046,9.036,9.036,9.036h9.036V53.964h-9.036C34.864,53.964,30.819,58.01,30.819,63z" id="SVGID_93_"/></defs><clipPath id="SVGID_4_"><use overflow="visible" xlink:href="#SVGID_93_"/></clipPath><polygon clip-path="url(#SVGID_4_)" fill="#5881AC" points="34.859,64 36.929,66.071 36.168,67.245 41.472,72.549 49.313,72.549      49.313,64.396 44.17,59.243 42.708,59.729 40.968,57.988    "/></g><path d="M44.827,62.244h-0.409c-0.109-0.466-0.294-0.901-0.539-1.296l0.29-0.29c0.391-0.391,0.391-1.023,0-1.414    s-1.023-0.391-1.414,0l-0.288,0.288c-0.396-0.246-0.832-0.432-1.299-0.542v-0.403c0-0.552-0.447-1-1-1s-1,0.448-1,1v0.403    c-0.467,0.11-0.903,0.296-1.299,0.542l-0.287-0.287c-0.391-0.391-1.023-0.391-1.414,0s-0.391,1.023,0,1.414l0.29,0.29    c-0.245,0.396-0.43,0.83-0.539,1.297h-0.408c-0.553,0-1,0.448-1,1s0.447,1,1,1h0.413c0.11,0.464,0.295,0.897,0.54,1.291    l-0.296,0.296c-0.391,0.391-0.391,1.023,0,1.414c0.195,0.195,0.451,0.293,0.707,0.293s0.512-0.098,0.707-0.293l0.298-0.298    c0.394,0.243,0.825,0.427,1.289,0.536v0.419c0,0.552,0.447,1,1,1s1-0.448,1-1v-0.419c0.463-0.109,0.895-0.293,1.289-0.536    l0.298,0.298c0.195,0.195,0.451,0.293,0.707,0.293s0.512-0.098,0.707-0.293c0.391-0.391,0.391-1.023,0-1.414l-0.296-0.296    c0.245-0.394,0.43-0.827,0.539-1.291h0.414c0.553,0,1-0.448,1-1S45.38,62.244,44.827,62.244z" fill="#FFF1E5"/><g><g><circle cx="105.969" cy="38.667" fill="#6D8BBE" r="1"/></g><g><circle cx="22.029" cy="38.667" fill="#6D8BBE" r="1"/></g></g><g><g><circle cx="105.969" cy="89.334" fill="#5D77A2" r="1"/></g><g><circle cx="22.029" cy="89.334" fill="#5D77A2" r="1"/></g></g><g><defs><path d="M88.145,53.964h-9.058v18.072h9.058c4.99,0,9.036-4.045,9.036-9.036S93.136,53.964,88.145,53.964z" id="SVGID_95_"/></defs><clipPath id="SVGID_6_"><use overflow="visible" xlink:href="#SVGID_95_"/></clipPath><polygon clip-path="url(#SVGID_6_)" fill="#5881AC" points="82.776,64 84.847,66.071 84.085,67.245 89.389,72.549 97.23,72.549      97.23,64.396 92.087,59.243 90.626,59.729 88.885,57.988    "/></g><path d="M92.746,62.244h-0.409c-0.109-0.466-0.294-0.901-0.539-1.296l0.29-0.29c0.391-0.391,0.391-1.023,0-1.414    s-1.023-0.391-1.414,0l-0.288,0.288c-0.396-0.246-0.832-0.432-1.299-0.542v-0.403c0-0.552-0.447-1-1-1s-1,0.448-1,1v0.403    c-0.467,0.11-0.903,0.296-1.299,0.542L85.5,59.243c-0.391-0.391-1.023-0.391-1.414,0s-0.391,1.023,0,1.414l0.29,0.29    c-0.245,0.396-0.43,0.83-0.539,1.297h-0.408c-0.553,0-1,0.448-1,1s0.447,1,1,1h0.413c0.11,0.464,0.295,0.897,0.54,1.291    l-0.296,0.296c-0.391,0.391-0.391,1.023,0,1.414c0.195,0.195,0.451,0.293,0.707,0.293s0.512-0.098,0.707-0.293l0.298-0.298    c0.394,0.243,0.825,0.427,1.289,0.536v0.419c0,0.552,0.447,1,1,1s1-0.448,1-1v-0.419c0.463-0.109,0.895-0.293,1.289-0.536    l0.298,0.298c0.195,0.195,0.451,0.293,0.707,0.293s0.512-0.098,0.707-0.293c0.391-0.391,0.391-1.023,0-1.414l-0.296-0.296    c0.245-0.394,0.43-0.827,0.539-1.291h0.414c0.553,0,1-0.448,1-1S93.298,62.244,92.746,62.244z" fill="#FFF1E5"/></g></g></svg>