<?xml version="1.0" ?><svg enable-background="new 0 0 841.89 595.28" height="100" id="Layer_1" version="1.1" viewBox="0 0 99.999998 99.999995" width="100" xml:space="preserve" xmlns="http://www.w3.org/2000/svg" xmlns:cc="http://creativecommons.org/ns#" xmlns:dc="http://purl.org/dc/elements/1.1/" xmlns:inkscape="http://www.inkscape.org/namespaces/inkscape" xmlns:rdf="http://www.w3.org/1999/02/22-rdf-syntax-ns#" xmlns:sodipodi="http://sodipodi.sourceforge.net/DTD/sodipodi-0.dtd" xmlns:svg="http://www.w3.org/2000/svg"><defs id="defs35"/><g id="g3" transform="matrix(0.22701245,0,0,0.22701245,-45.559683,-17.567988)"><g id="g5"><path clip-rule="evenodd" d="m 386.542,317.087 c -13.294,9.811 -32.568,15.029 -49.164,15.029 -23.261,0 -44.206,-8.598 -60.058,-22.91 -1.244,-1.123 -0.134,-2.66 1.362,-1.789 17.101,9.951 38.249,15.943 60.092,15.943 14.734,0 30.932,-3.057 45.835,-9.379 2.249,-0.953 4.133,1.483 1.933,3.106 z" id="path7" style="fill:#ff9900;fill-rule:evenodd"/><path clip-rule="evenodd" d="m 392.075,310.772 c -1.7,-2.178 -11.24,-1.031 -15.525,-0.52 -1.298,0.154 -1.499,-0.977 -0.329,-1.799 7.609,-5.346 20.078,-3.801 21.527,-2.014 1.461,1.807 -0.382,14.307 -7.514,20.273 -1.098,0.918 -2.141,0.428 -1.654,-0.783 1.603,-4.006 5.197,-12.979 3.495,-15.157 z" id="path9" style="fill:#ff9900;fill-rule:evenodd"/></g><g id="g11"><path clip-rule="evenodd" d="m 376.851,270.695 v -5.193 c 0.004,-0.79 0.6,-1.317 1.316,-1.316 l 23.277,-0.002 c 0.745,10e-4 1.342,0.542 1.344,1.313 l -0.002,4.454 c -0.006,0.747 -0.635,1.722 -1.752,3.27 l -12.058,17.215 c 4.476,-0.105 9.21,0.564 13.276,2.851 0.918,0.515 1.164,1.279 1.235,2.027 v 5.542 c 0,0.762 -0.835,1.646 -1.713,1.188 -7.165,-3.754 -16.673,-4.164 -24.595,0.045 -0.811,0.432 -1.657,-0.439 -1.657,-1.203 v -5.269 c 0,-0.842 0.016,-2.284 0.866,-3.569 l 13.969,-20.041 -12.162,-0.002 c -0.742,-0.002 -1.338,-0.532 -1.344,-1.31 z" id="path13" style="fill-rule:evenodd"/><path clip-rule="evenodd" d="m 291.941,303.134 h -7.082 c -0.674,-0.045 -1.212,-0.551 -1.267,-1.197 l 0.005,-36.346 c 0,-0.728 0.612,-1.309 1.367,-1.309 l 6.595,-0.002 c 0.69,0.035 1.244,0.558 1.288,1.221 v 4.745 h 0.132 c 1.719,-4.589 4.958,-6.73 9.321,-6.73 4.429,0 7.205,2.142 9.189,6.73 1.718,-4.589 5.618,-6.73 9.783,-6.73 2.975,0 6.214,1.224 8.197,3.978 2.248,3.059 1.786,7.494 1.786,11.396 l -0.006,22.937 c 0,0.725 -0.612,1.309 -1.366,1.309 h -7.073 c -0.71,-0.047 -1.271,-0.609 -1.271,-1.307 l -10e-4,-19.268 c 0,-1.529 0.132,-5.354 -0.198,-6.807 -0.529,-2.447 -2.115,-3.136 -4.164,-3.136 -1.719,0 -3.504,1.147 -4.231,2.982 -0.728,1.836 -0.661,4.895 -0.661,6.96 v 19.266 c 0,0.725 -0.612,1.309 -1.366,1.309 h -7.074 c -0.71,-0.047 -1.271,-0.609 -1.271,-1.307 l -0.006,-19.268 c 0,-4.053 0.661,-10.019 -4.363,-10.019 -5.091,0 -4.892,5.813 -4.892,10.019 l -0.003,19.266 c -0.001,0.724 -0.614,1.308 -1.368,1.308 z" id="path15" style="fill-rule:evenodd"/><path clip-rule="evenodd" d="m 422.826,263.516 c 10.511,0 16.194,9.025 16.194,20.497 0,11.09 -6.278,19.887 -16.194,19.887 -10.312,0 -15.931,-9.025 -15.931,-20.27 0,-11.318 5.685,-20.114 15.931,-20.114 z m 0.066,7.419 c -5.222,0 -5.552,7.112 -5.552,11.549 0,4.436 -0.065,13.92 5.487,13.92 5.487,0 5.751,-7.648 5.751,-12.313 0,-3.06 -0.133,-6.731 -1.058,-9.638 -0.794,-2.524 -2.381,-3.518 -4.628,-3.518 z" id="path17" style="fill-rule:evenodd"/><path clip-rule="evenodd" d="m 452.651,303.134 h -7.055 c -0.71,-0.047 -1.271,-0.609 -1.271,-1.307 l -0.011,-36.359 c 0.06,-0.664 0.646,-1.186 1.36,-1.186 l 6.569,-0.002 c 0.618,0.031 1.128,0.454 1.258,1.019 v 5.559 h 0.134 c 1.983,-4.971 4.759,-7.342 9.649,-7.342 3.173,0 6.281,1.147 8.264,4.283 1.853,2.906 1.853,7.801 1.853,11.319 v 22.871 c -0.08,0.645 -0.658,1.145 -1.357,1.145 h -7.1 c -0.656,-0.043 -1.185,-0.525 -1.262,-1.145 v -19.735 c 0,-3.978 0.464,-9.79 -4.429,-9.79 -1.72,0 -3.306,1.147 -4.098,2.906 -0.992,2.218 -1.125,4.436 -1.125,6.884 v 19.571 c -0.011,0.725 -0.623,1.309 -1.379,1.309 z" id="path19" style="fill-rule:evenodd"/><ellipse clip-rule="evenodd" cx="481.32501" cy="300.25" d="m 484.81001,300.25 c 0,1.82917 -1.56029,3.312 -3.485,3.312 -1.92471,0 -3.485,-1.48283 -3.485,-3.312 0,-1.82917 1.56029,-3.312 3.485,-3.312 1.92471,0 3.485,1.48283 3.485,3.312 z" id="ellipse21" rx="3.4849999" ry="3.312" style="fill-rule:evenodd"/><path d="m 552.868,303.144 c -0.734,-0.023 -1.32,-0.596 -1.32,-1.307 v -36.352 c 0.05,-0.641 0.592,-1.152 1.267,-1.195 l 2.601,-0.001 c 0.715,0 1.301,0.522 1.359,1.197 v 5.3 c 1.849,-4.199 5.293,-7.49 9.646,-7.49 l 0.273,0.004 0.262,-0.004 c 4.617,0 7.997,3.407 9.251,8.356 1.958,-4.887 5.645,-8.356 10.507,-8.356 l 0.252,0.004 0.284,-0.004 c 3.437,0 6.741,2.218 8.46,5.583 1.652,3.213 1.587,7.495 1.587,11.091 l -0.002,21.867 c 0.002,0.697 -0.56,1.26 -1.27,1.307 h -3.111 c -0.671,-0.021 -1.22,-0.502 -1.309,-1.129 V 279.97 c 0,-2.602 0.131,-5.354 -0.927,-7.726 -1.08,-2.427 -3.139,-3.935 -5.353,-4.046 -2.472,0.122 -4.741,1.917 -6.207,4.352 -1.919,3.137 -1.852,5.967 -1.852,9.638 v 19.839 c -0.087,0.604 -0.611,1.074 -1.259,1.117 h -3.096 c -0.734,-0.023 -1.323,-0.596 -1.323,-1.307 l -0.014,-23.32 c 0,-2.143 -0.132,-4.666 -1.123,-6.578 -1.143,-2.201 -3.194,-3.627 -5.344,-3.74 -2.229,0.125 -4.485,1.828 -5.822,3.816 -1.718,2.523 -2.049,5.66 -2.049,8.873 l -0.002,20.949 c 0,0.697 -0.562,1.26 -1.271,1.307 h -3.095 z" id="path23"/><path d="m 531.527,303.909 c -10.047,0 -14.542,-10.25 -14.542,-20.498 0,-10.784 5.289,-20.115 15.402,-20.115 l 0.261,0.002 0.273,-0.002 c 9.851,0 14.743,9.943 14.743,20.191 0,10.861 -5.421,20.422 -15.603,20.422 l -0.26,-0.004 -0.274,0.004 z m 0.742,-4.977 c 3.306,-0.108 5.913,-2.155 7.457,-5.578 1.388,-3.06 1.652,-6.577 1.652,-9.942 0,-3.672 -0.397,-7.496 -2.115,-10.631 -1.539,-2.743 -4.193,-4.48 -7.005,-4.585 -3.13,0.115 -5.92,2.23 -7.333,5.502 -1.256,2.83 -1.653,6.578 -1.653,9.714 0,3.518 0.463,7.572 1.918,10.631 1.412,2.897 4.136,4.785 7.079,4.889 z" id="path25"/><path d="m 500.129,298.78 c 4.511,-0.143 6.879,-3.757 7.861,-8.443 0.192,-0.584 0.641,-1.034 1.298,-1.034 l 2.983,-0.013 c 0.704,0.037 1.351,0.576 1.297,1.232 -1.378,7.971 -6.189,13.387 -13.047,13.387 l -0.276,-0.004 -0.26,0.004 c -9.981,0 -14.277,-10.02 -14.277,-20.192 0,-10.096 4.362,-20.421 14.344,-20.421 l 0.264,0.003 0.272,-0.003 c 6.926,0 11.869,5.338 12.942,13.314 0,0.598 -0.555,1.115 -1.206,1.191 l -3.127,-0.037 c -0.65,-0.092 -1.079,-0.657 -1.177,-1.283 -0.753,-4.452 -3.311,-7.993 -7.571,-8.133 -6.787,0.217 -8.718,8.57 -8.718,14.986 0,6.194 1.611,15.222 8.398,15.446 z" id="path27"/><path clip-rule="evenodd" d="m 358.295,285.776 c 0,2.76 0.065,5.059 -1.325,7.512 -1.127,1.994 -2.915,3.219 -4.902,3.219 -2.717,0 -4.307,-2.07 -4.307,-5.135 0,-6.031 5.41,-7.129 10.534,-7.129 v 1.533 z m 7.14,17.266 c -0.47,0.42 -1.145,0.449 -1.674,0.166 -2.352,-1.956 -2.773,-2.859 -4.059,-4.721 -3.888,3.961 -6.641,5.148 -11.676,5.148 -5.962,0 -10.6,-3.68 -10.6,-11.037 0,-5.75 3.113,-9.658 7.552,-11.575 3.843,-1.687 9.209,-1.992 13.316,-2.452 v -0.92 c 0,-1.687 0.132,-3.68 -0.861,-5.136 -0.861,-1.304 -2.518,-1.84 -3.976,-1.84 -2.7,0 -5.102,1.384 -5.691,4.253 -0.123,0.638 -0.588,1.269 -1.23,1.302 l -6.863,-0.743 c -0.58,-0.131 -1.225,-0.596 -1.058,-1.48 1.578,-8.327 9.098,-10.843 15.837,-10.843 3.445,0 7.95,0.92 10.666,3.526 3.445,3.219 3.113,7.512 3.113,12.188 v 11.033 c 0,3.318 1.379,4.773 2.674,6.563 0.451,0.645 0.554,1.41 -0.023,1.881 -1.447,1.213 -4.018,3.445 -5.432,4.703 l -0.015,-0.016 z" id="path29" style="fill-rule:evenodd"/><path clip-rule="evenodd" d="m 265.46,285.776 c 0,2.76 0.066,5.059 -1.325,7.512 -1.126,1.994 -2.915,3.219 -4.902,3.219 -2.715,0 -4.306,-2.07 -4.306,-5.135 0,-6.031 5.41,-7.129 10.533,-7.129 v 1.533 z m 7.14,17.266 c -0.469,0.42 -1.145,0.449 -1.673,0.166 -2.353,-1.956 -2.774,-2.859 -4.06,-4.721 -3.887,3.961 -6.641,5.148 -11.675,5.148 -5.963,0 -10.6,-3.68 -10.6,-11.037 0,-5.75 3.114,-9.658 7.552,-11.575 3.842,-1.687 9.209,-1.992 13.316,-2.452 v -0.92 c 0,-1.687 0.132,-3.68 -0.861,-5.136 -0.862,-1.304 -2.519,-1.84 -3.975,-1.84 -2.701,0 -5.103,1.384 -5.692,4.253 -0.123,0.638 -0.587,1.269 -1.23,1.302 l -6.864,-0.743 c -0.58,-0.131 -1.225,-0.596 -1.057,-1.48 1.577,-8.327 9.097,-10.843 15.836,-10.843 3.445,0 7.949,0.92 10.666,3.526 3.444,3.219 3.113,7.512 3.113,12.188 v 11.033 c 0,3.318 1.378,4.773 2.673,6.563 0.452,0.645 0.553,1.41 -0.023,1.881 -1.446,1.213 -4.017,3.445 -5.431,4.703 l -0.015,-0.016 z" id="path31" style="fill-rule:evenodd"/></g></g></svg>