<?xml version="1.0" ?><!DOCTYPE svg  PUBLIC '-//W3C//DTD SVG 1.0//EN'  'http://www.w3.org/TR/2001/REC-SVG-20010904/DTD/svg10.dtd'><svg height="110px" style="enable-background:new 0 0 110 110;" version="1.0" viewBox="0 0 110 110" width="110px" xml:space="preserve" xmlns="http://www.w3.org/2000/svg" xmlns:xlink="http://www.w3.org/1999/xlink"><g id="Artboard"/><g id="Multicolor"><circle cx="55" cy="55" r="55" style="fill:#32BEA6;"/><g><path d="M79,27c0-2.209-1.791-4-4-4H35c-2.209,0-4,1.791-4,4v56c0,2.209,1.791,4,4,4h40    c2.209,0,4-1.791,4-4V27z" style="fill:#FFFFFF;"/><rect height="48" style="fill:#3E3E3F;" width="40" x="35" y="29"/><circle cx="55" cy="82" r="2" style="fill:#CFD3D4;"/><g><circle cx="59.667" cy="58.333" r="1.333" style="fill:#B6BCBD;"/><rect height="1" style="fill:#B6BCBD;" width="5" x="64" y="58"/></g><g><circle cx="59.667" cy="64.667" r="1.333" style="fill:#B6BCBD;"/><rect height="1" style="fill:#B6BCBD;" width="5" x="64" y="64.333"/></g><circle cx="55" cy="26" r="1" style="fill:#3E3E3F;"/><polygon points="35.009,67 73,29.009 35.009,29.009   " style="fill:#5B5C5F;"/><rect height="7" style="fill:#FBE158;" width="6" x="42" y="44"/><rect height="11" style="fill:#17B198;" width="6" x="52" y="40"/><rect height="16" style="fill:#059BBF;" width="6" x="63" y="35"/><g><circle cx="47" cy="63" r="8" style="fill:#FACB1B;"/><path d="M55,63c0,4.42-3.58,8-8,8c-3.36,0-6.233-2.067-7.42-5l14.78-6.153C54.773,60.813,55,61.88,55,63z" style="fill:#4AC3AF;"/><path d="M55.013,63.003c0,2.82-1.46,5.3-3.667,6.727l-4.327-6.82l7.353-3.06     C54.786,60.817,55.013,61.883,55.013,63.003z" style="fill:#21B2D1;"/><path d="M54.36,59.847L47,62.913V55C50.3,55,53.133,57,54.36,59.847z" style="fill:#FA5655;"/></g></g></g></svg>