<?xml version="1.0" ?><svg height="100" id="svg2" version="1.1" width="100" xmlns="http://www.w3.org/2000/svg" xmlns:cc="http://creativecommons.org/ns#" xmlns:dc="http://purl.org/dc/elements/1.1/" xmlns:inkscape="http://www.inkscape.org/namespaces/inkscape" xmlns:rdf="http://www.w3.org/1999/02/22-rdf-syntax-ns#" xmlns:sodipodi="http://sodipodi.sourceforge.net/DTD/sodipodi-0.dtd" xmlns:svg="http://www.w3.org/2000/svg"><defs id="defs11"/><g id="g2990" transform="matrix(0.08097392,0,0,0.08097392,9.5130805,55.205084)"><path d="M 246.11,-112.38 H 129.54 v 34.591002 h 82.673 c -4.0842,48.506 -44.44,69.1920004 -82.533,69.1920004 -48.736,0 -91.264,-38.3460004 -91.264,-92.0920024 0,-52.357 40.54,-92.679 91.371,-92.679 39.217,0 62.326,25 62.326,25 l 24.22,-25.081 c 0,0 -31.087,-34.608 -87.784,-34.608 -72.197,-0.001 -128.05,60.933 -128.05,126.75 0,64.493002 52.539,127.380002 129.89,127.380002 68.031,0 117.83,-46.604 117.83,-115.52 0,-14.539002 -2.1109,-22.942002 -2.1109,-22.942002 z" id="path2998" style="fill:#4885ed"/><path d="m 341.6,-137.431 c -47.832,0 -82.111,37.395 -82.111,81.008002 0,44.258 33.249,82.348 82.673,82.348 44.742,0 81.397,-34.1969996 81.397,-81.397 C 423.559,-109.57 380.921,-137.431 341.6,-137.431 z m 0.47563,32.083 c 23.522,0 45.812,19.017002 45.812,49.660002 0,29.993 -22.195,49.5520004 -45.92,49.5520004 -26.068,0 -46.633,-20.8780004 -46.633,-49.7900004 0,-28.292 20.31,-49.422002 46.741,-49.422002 z" id="path3000" style="fill:#db3236"/><path d="m 520.18,-137.431 c -47.832,0 -82.111,37.395 -82.111,81.008002 0,44.258 33.249,82.348 82.673,82.348 44.742,0 81.397,-34.1969996 81.397,-81.397 0,-54.098002 -42.638,-81.959002 -81.959,-81.959002 z m 0.47562,32.083 c 23.522,0 45.812,19.017002 45.812,49.660002 0,29.993 -22.195,49.5520004 -45.92,49.5520004 -26.068,0 -46.633,-20.8780004 -46.633,-49.7900004 0,-28.292 20.31,-49.422002 46.741,-49.422002 z" id="path3005" style="fill:#f4c20d"/><path d="m 695.34,-137.345 c -43.904,0 -78.414,38.453002 -78.414,81.613002 0,49.1630004 40.009,81.765 77.657,81.765 23.279,0 35.657,-9.2405 44.796,-19.8469996 V 22.292002 c 0,28.18 -17.11,45.055 -42.936,45.055 -24.949,0 -37.463,-18.551 -41.812,-29.078 l -31.391,13.123 c 11.136,23.547 33.554,48.103 73.463,48.103 43.652,0 76.922,-27.495 76.922,-85.159 V -132.434 H 739.38 v 13.836 c -10.53,-11.347 -24.93,-18.745 -44.04,-18.745 z m 3.178,32.018 c 21.525,0 43.628,18.380002 43.628,49.768002 0,31.904 -22.056,49.4870004 -44.104,49.4870004 -23.406,0 -45.185,-19.0050004 -45.185,-49.1840004 0,-31.358 22.619,-50.071002 45.66,-50.071002 z" id="path3007" style="fill:#4885ed"/><path d="m 925.89,-137.54 c -41.414,0 -76.187,32.95 -76.187,81.570002 0,51.4470004 38.759,81.959 80.165,81.959 34.558,0 55.768,-18.9059996 68.426,-35.8449996 L 970.059,-28.642998 c -7.3268,11.371 -19.576,22.4840004 -40.018,22.4840004 -22.962,0 -33.52,-12.5740004 -40.061,-24.7540004 l 109.52,-45.444 -5.6859,-13.318 c -10.58,-26.080002 -35.26,-47.860002 -67.92,-47.860002 z m 1.4268,31.413 c 14.923,0 25.663,7.934202 30.224,17.447002 l -73.139,30.57 c -3.1532,-23.667 19.269,-48.017002 42.915,-48.017002 z" id="path3011" style="fill:#db3236"/><path d="m 797.49,21.140002 h 35.975 V -219.61 H 797.49 z" id="path3015" style="fill:#3cba54"/></g></svg>