<?xml version="1.0" ?><svg enable-background="new 0 0 460 460" height="100" id="Layer_1" version="1.1" viewBox="0 0 100 100" width="100" xml:space="preserve" xmlns="http://www.w3.org/2000/svg" xmlns:cc="http://creativecommons.org/ns#" xmlns:dc="http://purl.org/dc/elements/1.1/" xmlns:inkscape="http://www.inkscape.org/namespaces/inkscape" xmlns:rdf="http://www.w3.org/1999/02/22-rdf-syntax-ns#" xmlns:sodipodi="http://sodipodi.sourceforge.net/DTD/sodipodi-0.dtd" xmlns:svg="http://www.w3.org/2000/svg"><defs id="defs27"/><g id="g3" transform="matrix(0.40258382,0,0,0.40258382,-42.594077,-9.0260345)"><path d="m 274.488,123.079 c 0,-2.175 1.807,-3.938 4.035,-3.938 h 46.535 c 2.229,0 4.036,1.763 4.036,3.938 v 47.079 c 0,2.174 -1.808,3.937 -4.036,3.937 h -46.535 c -2.229,0 -4.035,-1.763 -4.035,-3.937 v -47.079 l 0,0 z" id="path5" style="fill:#007fb1"/><polygon id="polygon7" points="144.416,157.69 129.874,157.69 129.874,129.881 121.627,129.881 121.627,165.172 121.627,165.172 144.416,165.172 " style="fill:#231f20"/><path clip-rule="evenodd" d="m 155.954,165.172 v -24.813 h -8.248 v 24.813 h 8.248 l 0,0 z m -4.124,-28.201 c 2.876,0 4.667,-1.905 4.667,-4.288 -0.054,-2.434 -1.79,-4.286 -4.611,-4.286 -2.822,0 -4.667,1.853 -4.667,4.286 0,2.383 1.79,4.288 4.558,4.288 h 0.053 l 0,0 z" id="path9" style="fill:#231f20;fill-rule:evenodd"/><path clip-rule="evenodd" d="m 159.783,165.172 h 8.248 v -13.857 c 0,-0.741 0.054,-1.482 0.272,-2.011 0.596,-1.482 1.953,-3.018 4.231,-3.018 2.985,0 4.179,2.276 4.179,5.61 v 13.275 h 8.247 v -14.228 c 0,-7.622 -4.069,-11.168 -9.496,-11.168 -4.449,0 -6.402,2.486 -7.488,4.181 h 0.055 v -3.599 h -8.248 c 0.108,2.33 0,24.815 0,24.815 l 0,0 z" id="path11" style="fill:#231f20;fill-rule:evenodd"/><path d="m 196.595,129.881 h -8.249 v 35.291 h 8.249 v -8.045 l 2.061,-2.594 6.457,10.639 h 10.147 l -10.852,-15.402 9.495,-10.479 h -9.929 c 0,0 -6.782,9.376 -7.379,10.487 v -19.897 l 0,0 z" id="path13" style="fill:#231f20"/><path clip-rule="evenodd" d="m 237.316,154.822 c 0.107,-0.638 0.271,-1.859 0.271,-3.241 0,-6.416 -3.255,-12.927 -11.828,-12.927 -9.171,0 -13.403,7.252 -13.403,13.83 0,8.136 5.155,13.217 14.162,13.217 3.582,0 6.89,-0.529 9.604,-1.641 l -1.085,-5.447 c -2.225,0.738 -4.503,1.107 -7.325,1.107 -3.853,0 -7.217,-1.581 -7.488,-4.952 l 17.092,0.054 0,0 z m -17.146,-5.58 c 0.217,-2.117 1.627,-5.242 5.154,-5.242 3.743,0 4.612,3.336 4.612,5.242 h -9.766 l 0,0 z" id="path15" style="fill:#231f20;fill-rule:evenodd"/><path clip-rule="evenodd" d="m 257.945,129.881 v 11.737 h -0.107 c -1.195,-1.747 -3.691,-2.911 -7,-2.911 -6.348,0 -11.938,5.081 -11.883,13.762 0,8.046 5.045,13.285 11.34,13.285 3.418,0 6.674,-1.481 8.302,-4.339 h 0.163 l 0.325,3.757 h 7.325 c -0.109,-1.747 -0.218,-4.764 -0.218,-7.727 v -27.564 h -8.247 l 0,0 z m 0,23.806 c 0,0.635 -0.055,1.271 -0.163,1.799 -0.487,2.276 -2.44,3.865 -4.828,3.865 -3.419,0 -5.644,-2.753 -5.644,-7.094 0,-4.075 1.899,-7.356 5.697,-7.356 2.55,0 4.342,1.746 4.83,3.916 0.107,0.477 0.107,1.007 0.107,1.482 v 3.388 l 10e-4,0 z" id="path17" style="fill:#231f20;fill-rule:evenodd"/><path clip-rule="evenodd" d="m 291.04,165.143 v -24.814 h -8.247 v 24.814 h 8.247 l 0,0 z m -4.123,-28.202 c 2.876,0 4.666,-1.906 4.666,-4.288 -0.054,-2.434 -1.79,-4.287 -4.611,-4.287 -2.821,0 -4.666,1.854 -4.666,4.287 0,2.382 1.79,4.288 4.558,4.288 h 0.053 l 0,0 z" id="path19" style="fill:#ffffff;fill-rule:evenodd"/><path clip-rule="evenodd" d="m 295.604,165.143 h 8.248 v -13.857 c 0,-0.741 0.054,-1.482 0.271,-2.012 0.596,-1.482 1.953,-3.018 4.231,-3.018 2.985,0 4.179,2.276 4.179,5.611 v 13.275 h 8.247 v -14.229 c 0,-7.621 -4.069,-11.168 -9.496,-11.168 -4.449,0 -6.402,2.487 -7.487,4.182 h 0.055 v -3.6 h -8.248 c 0.109,2.329 0,24.816 0,24.816 l 0,0 z" id="path21" style="fill:#ffffff;fill-rule:evenodd"/><path clip-rule="evenodd" d="m 334.185,164.708 h 0.635 v -1.415 h 0.464 l 0.861,1.415 h 0.667 l -0.902,-1.465 c 0.472,-0.056 0.829,-0.349 0.829,-0.951 0,-0.667 -0.39,-1.04 -1.22,-1.04 h -1.334 v 3.456 l 0,0 z m 0.634,-2.92 h 0.464 c 0.39,-0.008 0.82,0.017 0.82,0.479 0,0.464 -0.431,0.488 -0.82,0.488 h -0.464 v -0.967 l 0,0 z M 332.323,163 c 0,1.667 1.357,3.025 3.025,3.025 1.667,0 3.024,-1.358 3.024,-3.025 0,-1.667 -1.357,-3.025 -3.024,-3.025 -1.667,0 -3.025,1.358 -3.025,3.025 l 0,0 z m 0.536,0 c 0,-1.375 1.114,-2.488 2.489,-2.488 1.374,0 2.487,1.113 2.487,2.488 0,1.375 -1.113,2.489 -2.487,2.489 -1.374,0 -2.489,-1.114 -2.489,-2.489 l 0,0 z" id="path23" style="fill:#231f20;fill-rule:evenodd"/></g></svg>