<?xml version="1.0" ?><!DOCTYPE svg  PUBLIC '-//W3C//DTD SVG 1.1//EN'  'http://www.w3.org/Graphics/SVG/1.1/DTD/svg11.dtd'><svg enable-background="new 0 0 128 128" height="128px" id="Layer_1" version="1.1" viewBox="0 0 128 128" width="128px" xml:space="preserve" xmlns="http://www.w3.org/2000/svg" xmlns:xlink="http://www.w3.org/1999/xlink"><path d="M128,64c0,0.17,0,0.33-0.01,0.5c-0.05,8.1-1.619,15.83-4.42,22.94c-0.13,0.34-0.26,0.67-0.4,1  c-2.439,5.909-5.739,11.369-9.75,16.239c-0.33,0.4-0.66,0.801-1,1.19c-1.68,1.93-3.469,3.76-5.35,5.479  c-0.369,0.341-0.74,0.67-1.119,1c-5.031,4.36-10.75,7.96-16.971,10.591c-0.33,0.149-0.66,0.279-1,0.409  c-7.26,2.94-15.18,4.58-23.48,4.641C64.33,128,64.17,128,64,128s-0.33,0-0.5-0.01c-8.3-0.061-16.22-1.7-23.48-4.641  c-0.34-0.13-0.67-0.26-1-0.409c-6.22-2.631-11.94-6.23-16.97-10.591c-0.38-0.33-0.75-0.659-1.12-1c-1.88-1.72-3.67-3.55-5.35-5.479  c-0.34-0.39-0.67-0.79-1-1.19c-4.01-4.87-7.31-10.33-9.75-16.239c-0.14-0.33-0.27-0.66-0.4-1C1.63,80.33,0.06,72.6,0.01,64.5  C0,64.33,0,64.17,0,64s0-0.33,0.01-0.5c0.05-8.1,1.62-15.83,4.42-22.94c0.13-0.34,0.26-0.67,0.4-1c2.44-5.909,5.74-11.37,9.75-16.24  c0.33-0.4,0.66-0.8,1-1.19c1.68-1.93,3.47-3.76,5.35-5.48c0.37-0.34,0.74-0.67,1.12-1c5.03-4.36,10.75-7.96,16.97-10.59  c0.33-0.15,0.66-0.28,1-0.41C47.28,1.71,55.2,0.07,63.5,0.01C63.67,0,63.83,0,64,0s0.33,0,0.5,0.01c8.3,0.06,16.22,1.7,23.48,4.64  c0.34,0.13,0.67,0.26,1,0.41c6.221,2.63,11.939,6.23,16.971,10.59c0.379,0.33,0.75,0.66,1.119,1c1.881,1.72,3.67,3.55,5.35,5.48  c0.34,0.39,0.67,0.79,1,1.19c4.011,4.87,7.311,10.331,9.75,16.24c0.141,0.33,0.271,0.66,0.4,1c2.801,7.11,4.37,14.841,4.42,22.94  C128,63.67,128,63.83,128,64z" fill="#686868"/><g><g><path d="M107.07,111.35c-0.369,0.341-0.74,0.67-1.119,1H22.05c-0.38-0.33-0.75-0.659-1.12-1H107.07z" fill="#828282"/></g><g><path d="M123.57,87.44c-0.13,0.34-0.26,0.67-0.4,1H4.83c-0.14-0.33-0.27-0.66-0.4-1H123.57z" fill="#828282"/></g><g><path d="M128,64c0,0.17,0,0.33-0.01,0.5H0.01C0,64.33,0,64.17,0,64s0-0.33,0.01-0.5h127.98    C128,63.67,128,63.83,128,64z" fill="#828282"/></g><g><path d="M123.57,40.56H4.43c0.13-0.34,0.26-0.67,0.4-1h118.339C123.31,39.89,123.44,40.22,123.57,40.56z" fill="#828282"/></g><g><path d="M107.07,16.65H20.93c0.37-0.34,0.74-0.67,1.12-1h83.901C106.33,15.98,106.701,16.31,107.07,16.65z" fill="#828282"/></g><g><path d="M113.419,23.32v81.36c-0.33,0.4-0.66,0.801-1,1.19V22.13C112.759,22.52,113.089,22.92,113.419,23.32z" fill="#828282"/></g><g><path d="M88.98,5.06v117.88c-0.33,0.149-0.66,0.279-1,0.409V4.65C88.32,4.78,88.65,4.91,88.98,5.06z" fill="#828282"/></g><g><path d="M64.5,0.01v127.98C64.33,128,64.17,128,64,128s-0.33,0-0.5-0.01V0.01C63.67,0,63.83,0,64,0    S64.33,0,64.5,0.01z" fill="#828282"/></g><g><path d="M40.02,4.65v118.7c-0.34-0.13-0.67-0.26-1-0.409V5.06C39.35,4.91,39.68,4.78,40.02,4.65z" fill="#828282"/></g><g><path d="M15.58,22.13v83.74c-0.34-0.39-0.67-0.79-1-1.19V23.32C14.91,22.92,15.24,22.52,15.58,22.13z" fill="#828282"/></g></g><rect fill="#F2F2F2" height="69" width="60" x="34" y="28.5"/><rect fill="#DBDBDB" height="7" width="30" x="64" y="28.5"/><rect fill="#EAD57D" height="4" width="46" x="41" y="49.5"/><path d="M52.354,42.5c0.55,0,0.726,0.434,0.39,0.869l-2.435,3.201c-0.335,0.436-0.884,0.454-1.22,0.019l-2.434-3.229  c-0.335-0.436-0.16-0.859,0.39-0.859H52.354z" fill="#C2C2C2"/><rect fill="#19D77A" height="4" width="46" x="41" y="65.5"/><path d="M73.584,58.5c0.55,0,0.726,0.395,0.39,0.83l-2.435,3.182c-0.335,0.436-0.884,0.445-1.22,0.01l-2.434-3.195  c-0.335-0.436-0.16-0.826,0.39-0.826H73.584z" fill="#C2C2C2"/><rect fill="#F0553A" height="4" width="46" x="41" y="81.5"/><path d="M59.431,74.5c0.55,0,0.726,0.356,0.39,0.792l-2.435,3.162c-0.335,0.436-0.884,0.436-1.22,0l-2.434-3.162  c-0.335-0.436-0.16-0.792,0.39-0.792H59.431z" fill="#C2C2C2"/></svg>