<?xml version="1.0" ?><svg enable-background="new 0 0 841.89 595.28" height="100" id="Layer_1" version="1.1" viewBox="0 0 99.999998 99.999995" width="100" xml:space="preserve" xmlns="http://www.w3.org/2000/svg" xmlns:cc="http://creativecommons.org/ns#" xmlns:dc="http://purl.org/dc/elements/1.1/" xmlns:inkscape="http://www.inkscape.org/namespaces/inkscape" xmlns:rdf="http://www.w3.org/1999/02/22-rdf-syntax-ns#" xmlns:sodipodi="http://sodipodi.sourceforge.net/DTD/sodipodi-0.dtd" xmlns:svg="http://www.w3.org/2000/svg"><defs id="defs24"/><g id="g3" transform="matrix(0.20080315,0,0,0.20080315,-34.527024,-9.7671398)"><path connector-curvature="0" d="m 393.751,277.294 c 1.45,0 2.907,0 4.364,0.007 -0.008,12.836 0,25.673 0,38.517 -1.457,0 -2.914,0 -4.364,0 0,-1.396 0.008,-2.793 0.03,-4.189 -3.098,5.594 -11.577,6.559 -16.124,2.262 -2.748,-2.543 -3.727,-6.414 -3.825,-10.043 -0.069,-4.107 0.956,-8.487 3.871,-11.539 4.183,-4.365 12.548,-4.607 16.086,0.706 -0.084,-5.237 -0.023,-10.483 -0.038,-15.721 m -10.415,16.154 c -2.938,1.215 -4.494,4.365 -4.836,7.378 -0.463,3.553 -0.075,7.744 2.801,10.248 2.938,2.672 7.94,2.096 10.393,-0.949 2.527,-3.035 2.179,-7.303 1.936,-10.984 -0.403,-4.744 -6.067,-7.743 -10.294,-5.693 z" id="path9" style="fill:#e81123"/><path connector-curvature="0" d="m 526.974,277.294 c 1.45,0 2.907,0 4.364,0 -0.045,5.496 0.1,10.999 -0.09,16.495 2.732,-4.251 8.51,-6.012 13.079,-3.758 3.233,1.458 4.296,5.313 4.426,8.57 0.121,5.74 0.008,11.478 0.045,17.216 -1.457,0 -2.915,0 -4.365,0 -0.03,-5.207 0.046,-10.414 -0.022,-15.623 -0.099,-2.611 -0.835,-5.768 -3.499,-6.892 -4.312,-1.913 -9.117,1.845 -9.481,6.248 -0.235,5.42 -0.015,10.848 -0.091,16.268 -1.458,0 -2.915,0 -4.365,0 -0.008,-12.843 -10e-4,-25.68 -10e-4,-38.524 l 0,0 z" id="path11" style="fill:#e81123"/><path connector-curvature="0" d="m 337.113,279.124 c 1.473,-1.298 4.168,-0.601 4.646,1.343 0.918,2.187 -1.906,4.532 -3.925,3.394 -1.905,-0.684 -2.147,-3.47 -0.721,-4.737 z" id="path13" style="fill:#e81123"/><path connector-curvature="0" d="m 285.979,279.359 c 1.663,0.015 3.333,0.038 4.996,0.076 2.634,10.301 5.913,20.427 8.319,30.782 2.573,-10.369 5.898,-20.549 8.76,-30.851 1.45,0.016 2.907,0.023 4.365,0.038 2.649,10.286 5.86,20.436 8.221,30.781 2.521,-10.316 5.42,-20.541 8.115,-30.812 1.617,0.008 3.233,0.008 4.851,0.008 -3.424,12.154 -6.862,24.3 -10.331,36.437 -1.746,0 -3.485,0 -5.224,0 -2.641,-9.807 -5.753,-19.5 -8.099,-29.384 -2.271,9.898 -5.436,19.593 -8.123,29.392 -1.716,-0.008 -3.431,-0.008 -5.146,0.008 -3.582,-12.152 -7.143,-24.314 -10.704,-36.475 z" id="path15" style="fill:#e81123"/><path connector-curvature="0" d="m 500.216,279.382 c 5.632,0.356 11.606,-0.979 16.958,1.267 7.158,3.257 7.424,14.461 1.237,18.833 -3.872,3.037 -9.011,2.725 -13.642,2.672 0,4.555 0,9.109 0,13.664 -1.525,0 -3.036,0 -4.554,0 0.001,-12.144 0.001,-24.29 0.001,-36.436 m 4.554,3.993 c 0.008,4.935 -0.007,9.869 0.008,14.81 3.826,-0.09 8.388,0.486 11.395,-2.436 2.656,-2.847 2.656,-8.107 -0.38,-10.682 -3.182,-2.292 -7.349,-1.586 -11.023,-1.692 l 0,0 z" id="path17" style="fill:#e81123"/><path connector-curvature="0" d="m 351.574,293.79 c 2.338,-3.575 6.749,-5.587 10.962,-4.471 4.023,0.66 6.354,4.744 6.49,8.547 0.151,5.982 -0.008,11.964 0.061,17.945 -1.457,0 -2.915,0.008 -4.372,0.008 -0.046,-5.42 0.076,-10.84 -0.038,-16.252 -0.068,-2.749 -1.382,-5.997 -4.38,-6.559 -4.251,-1.161 -8.396,2.688 -8.578,6.848 -0.25,5.313 -0.015,10.643 -0.106,15.963 -1.45,0 -2.899,0 -4.357,0 -0.007,-8.668 0,-17.331 0,-25.999 1.458,0 2.915,0 4.38,0 -0.016,1.32 -0.039,2.648 -0.062,3.97 z" id="path19" style="fill:#e81123"/><path connector-curvature="0" d="m 411.483,289.796 c 4.221,-1.26 9.269,-1.077 12.852,1.716 5.208,4.267 5.617,12.275 3.173,18.121 -3.78,8.691 -17.854,9.375 -22.538,1.199 -4.016,-7.029 -1.996,-18.455 6.513,-21.036 m 1.427,3.583 c -5.496,2.096 -6.293,9.322 -4.585,14.218 1.67,5.033 8.502,6.688 12.678,3.781 3.165,-2.416 3.787,-6.818 3.34,-10.529 -0.258,-2.741 -1.504,-5.549 -3.939,-7 -2.271,-1.228 -5.08,-1.312 -7.494,-0.47 z" id="path21" style="fill:#e81123"/><path connector-curvature="0" d="m 470.937,291.452 c 3.4,-3.082 8.548,-2.809 12.586,-1.253 -0.008,1.488 0,2.976 0.022,4.472 -2.649,-1.488 -6.08,-2.711 -8.942,-1.078 -2.201,1.191 -2.087,4.873 0.183,5.929 2.558,1.555 5.603,2.277 7.864,4.318 3.233,2.9 2.559,8.867 -1.191,11.037 -3.879,2.385 -8.867,1.99 -12.913,0.229 -0.015,-1.609 -0.03,-3.219 -0.061,-4.828 2.756,1.967 6.361,3.303 9.693,2.041 2.134,-0.674 2.756,-3.734 1.207,-5.291 -2.565,-2.193 -6.095,-2.801 -8.653,-5.01 -3.105,-2.604 -2.908,-8.039 0.205,-10.566 l 0,0 z" id="path23" style="fill:#e81123"/><path connector-curvature="0" d="m 561.794,289.888 c 4.221,-1.345 9.291,-1.177 12.942,1.556 5.269,4.221 5.716,12.267 3.287,18.134 -3.742,8.814 -17.96,9.43 -22.621,1.162 -3.856,-6.976 -1.951,-18.173 6.392,-20.852 m 0.835,3.841 c -5.321,2.968 -5.77,10.847 -2.869,15.652 3.143,4.807 11.698,4.586 14.081,-0.85 1.791,-4.373 1.716,-10.195 -1.73,-13.748 -2.491,-2.352 -6.491,-2.428 -9.482,-1.054 z" id="path25" style="fill:#e81123"/><path connector-curvature="0" d="m 589.175,293.706 c 2.824,-4.713 9.747,-6.148 14.165,-2.861 2.702,2.217 3.249,5.943 3.325,9.23 0.053,5.246 -0.008,10.492 0.022,15.736 -1.465,0 -2.923,0.008 -4.373,0.008 -0.075,-5.367 0.146,-10.74 -0.105,-16.107 -0.129,-2.725 -1.283,-6.02 -4.273,-6.666 -4.365,-1.268 -8.708,2.733 -8.692,7.06 -0.075,5.23 0.008,10.469 -0.022,15.705 -1.458,0.008 -2.915,0.008 -4.365,0.008 0,-8.668 0,-17.331 0,-25.999 1.458,0 2.915,0 4.372,0 -0.016,1.298 -0.024,2.596 -0.054,3.886 l 0,0 z" id="path27" style="fill:#e81123"/><path connector-curvature="0" d="m 614.423,293.79 c 3.644,-5.253 12.101,-6.43 16.792,-1.958 3.195,3.097 3.529,7.84 3.378,12.032 -6.18,0.008 -12.352,-0.008 -18.522,0 0.288,2.914 1.108,6.209 3.879,7.75 4.069,2.354 9.186,0.918 12.791,-1.662 -0.054,1.436 -0.084,2.877 -0.129,4.318 -4.16,2.277 -9.276,3.045 -13.809,1.459 -3.036,-1.078 -5.26,-3.758 -6.232,-6.771 -1.609,-4.981 -1.208,-10.811 1.852,-15.168 m 4.722,0.842 c -1.716,1.396 -2.338,3.583 -2.998,5.586 4.668,0.076 9.329,0.031 13.997,0.031 -0.204,-1.914 -0.432,-3.994 -1.829,-5.458 -2.285,-2.633 -6.734,-2.52 -9.17,-0.159 z" id="path29" style="fill:#e81123"/><path connector-curvature="0" d="m 336.817,289.82 c 1.45,0 2.899,0 4.357,-0.008 0.016,8.669 0,17.338 0.008,26.006 -1.458,0 -2.908,0 -4.357,0 -0.015,-8.668 -0.008,-17.33 -0.008,-25.998 z" id="path31" style="fill:#e81123"/><path connector-curvature="0" d="m 430.264,289.842 c 1.526,-0.015 3.066,-0.022 4.601,-0.03 1.904,7.09 4.091,14.112 5.7,21.27 2.05,-7.113 4.357,-14.15 6.452,-21.248 1.352,-0.015 2.703,-0.022 4.062,-0.03 1.89,7.317 4.396,14.499 5.8,21.922 1.404,-7.408 3.864,-14.589 5.7,-21.907 1.45,0 2.908,0 4.373,0 -2.642,8.653 -5.2,17.338 -7.842,25.991 -1.518,0.008 -3.029,0.008 -4.539,0.023 -1.891,-6.779 -4.046,-13.482 -5.754,-20.306 -1.951,6.794 -4.213,13.505 -6.247,20.283 -1.48,0 -2.954,0.008 -4.427,0.016 -2.626,-8.66 -5.246,-17.33 -7.879,-25.984 l 0,0 z" id="path33" style="fill:#e81123"/><g id="layer1" label="Layer 1" transform="matrix(0.91521282,0,0,0.91521282,136.33212,-206.23114)"><g id="g3012" transform="translate(109.60155,-54.548234)"><g id="g3763"><path connector-curvature="0" d="m -32.095,581.266 27.09,-3.69 0.012,26.131 -27.077,0.155 -0.025,-22.596 z m 27.078,25.453 0.021,26.153 -27.077,-3.722 -0.002,-22.607 27.058,0.176 z m 3.283,-29.624 35.92,-5.242 v 31.523 l -35.92,0.285 v -26.566 z m 35.928,29.87 -0.009,31.381 -35.92,-5.07 -0.05,-26.369 35.979,0.058 z" id="path13-7" nodetypes="cccccccccccccccccccc" style="fill:#e81123"/></g></g></g></g></svg>